<svg width="131" height="77" viewBox="0 0 131 77" fill="none" xmlns="http://www.w3.org/2000/svg">
<path d="M63.9932 2.72011C64.7936 1.73535 66.2969 1.73536 67.0973 2.72011L78.1162 16.2774C78.6134 16.8891 79.4234 17.1518 80.1849 16.9481L103.182 10.7978C104.803 10.3645 106.205 11.998 105.53 13.5337L100.482 25.0376C99.9565 26.234 100.701 27.6045 101.99 27.8152L122.497 31.1658C124.479 31.4896 124.801 34.2062 122.949 34.9837L107.084 41.6438C105.712 42.2198 105.427 44.0391 106.557 45.0071L117.252 54.1659C118.698 55.4037 117.761 57.7702 115.86 57.6829L92.4825 56.61C91.4697 56.5635 90.5824 57.2822 90.4174 58.2825L88.181 71.8478C87.9537 73.2266 86.4186 73.9532 85.2082 73.2549L66.5447 62.4879C65.9262 62.131 65.1643 62.131 64.5458 62.4879L45.8823 73.2549C44.6719 73.9532 43.1368 73.2266 42.9095 71.8478L40.6731 58.2825C40.5081 57.2822 39.6208 56.5635 38.608 56.61L15.2308 57.6829C13.3297 57.7702 12.3927 55.4037 13.8382 54.1659L24.5336 45.007C25.6639 44.0391 25.379 42.2198 24.0069 41.6438L8.14174 34.9837C6.28978 34.2062 6.61114 31.4896 8.59338 31.1658L29.1 27.8152C30.3896 27.6045 31.134 26.234 30.6089 25.0376L25.56 13.5337C24.886 11.998 26.2879 10.3645 27.9081 10.7978L50.9056 16.9481C51.6671 17.1518 52.4771 16.8891 52.9743 16.2774L63.9932 2.72011Z" fill="#F34747"/>
<path d="M58.1263 32.8895V44.5259H55.4899L51.2854 38.4122H51.2172V44.5259H48.0581V32.8895H50.7399L54.8763 38.9804H54.9672V32.8895H58.1263ZM59.6206 44.5259V32.8895H68.007V35.435H62.7797V37.435H67.5752V39.9804H62.7797V41.9804H67.9842V44.5259H59.6206ZM72.5283 44.5259L69.0965 32.8895H72.6192L74.2101 40.0486H74.301L76.1874 32.8895H78.9601L80.8465 40.0713H80.9374L82.5283 32.8895H86.051L82.6192 44.5259H79.5965L77.6192 38.0259H77.5283L75.551 44.5259H72.5283Z" fill="white"/>
</svg>
