<svg width="24" height="24" viewBox="0 0 24 24" fill="none" xmlns="http://www.w3.org/2000/svg">
<path d="M20.317 4.54973C18.7873 3.83243 17.147 3.30395 15.4319 3.00127C15.4007 2.99543 15.3695 3.01003 15.3534 3.03922C15.1424 3.42268 14.9087 3.92294 14.7451 4.31613C12.9004 4.0339 11.0652 4.0339 9.25832 4.31613C9.09465 3.9142 8.85248 3.42268 8.64057 3.03922C8.62448 3.011 8.59328 2.9964 8.56205 3.00127C6.84791 3.30298 5.20756 3.83146 3.67693 4.54973C3.66368 4.55557 3.65233 4.56531 3.64479 4.57795C0.533392 9.32844 -0.31895 13.9622 0.0991801 18.5384C0.101072 18.5608 0.11337 18.5822 0.130398 18.5958C2.18321 20.1365 4.17171 21.0718 6.12328 21.6918C6.15451 21.7015 6.18761 21.6898 6.20748 21.6635C6.66913 21.0193 7.08064 20.3399 7.43348 19.6255C7.4543 19.5837 7.43442 19.5341 7.39186 19.5175C6.73913 19.2645 6.1176 18.9559 5.51973 18.6056C5.47244 18.5774 5.46865 18.5082 5.51216 18.4751C5.63797 18.3788 5.76382 18.2785 5.88396 18.1773C5.90569 18.1588 5.93598 18.1549 5.96153 18.1666C9.88928 19.9993 14.1415 19.9993 18.023 18.1666C18.0485 18.154 18.0788 18.1579 18.1015 18.1764C18.2216 18.2776 18.3475 18.3788 18.4742 18.4751C18.5177 18.5082 18.5149 18.5774 18.4676 18.6056C17.8697 18.9627 17.2482 19.2645 16.5945 19.5165C16.552 19.5331 16.533 19.5837 16.5538 19.6255C16.9143 20.3389 17.3258 21.0183 17.7789 21.6626C17.7978 21.6898 17.8319 21.7015 17.8631 21.6918C19.8241 21.0718 21.8126 20.1365 23.8654 18.5958C23.8834 18.5822 23.8948 18.5618 23.8967 18.5394C24.3971 13.2487 23.0585 8.653 20.3482 4.57892C20.3416 4.56531 20.3303 4.55557 20.317 4.54973ZM8.02002 15.752C6.8375 15.752 5.86313 14.6425 5.86313 13.2799C5.86313 11.9173 6.8186 10.8078 8.02002 10.8078C9.23087 10.8078 10.1958 11.927 10.1769 13.2799C10.1769 14.6425 9.22141 15.752 8.02002 15.752ZM15.9947 15.752C14.8123 15.752 13.8379 14.6425 13.8379 13.2799C13.8379 11.9173 14.7933 10.8078 15.9947 10.8078C17.2056 10.8078 18.1705 11.927 18.1516 13.2799C18.1516 14.6425 17.2056 15.752 15.9947 15.752Z" fill="#FFEEE5"/>
</svg>
