<svg width="335" height="308" viewBox="0 0 335 308" fill="none" xmlns="http://www.w3.org/2000/svg">
<g clip-path="url(#clip0)">
<path fill-rule="evenodd" clip-rule="evenodd" d="M265.261 116.385C310.618 80.9664 318.676 15.4848 283.257 -29.8728C247.839 -75.2304 182.358 -83.2879 137 -47.8698L175.478 1.40681C193.622 -12.7605 219.814 -9.53746 233.981 8.60559C248.149 26.7486 244.926 52.9413 226.783 67.1086L265.261 116.385Z" fill="#E75E5E"/>
<path d="M174.437 166.565C172.618 176.544 161.037 181.289 152.698 175.473L109.956 145.664C100.916 139.358 102.446 125.587 112.652 121.405L164.721 100.069C174.927 95.8865 185.738 104.601 183.765 115.419L174.437 166.565Z" fill="#F278CF"/>
<path fill-rule="evenodd" clip-rule="evenodd" d="M251.408 159.314C284.521 144.249 331.037 163.121 353.214 191.979C375.817 221.393 343.528 267.664 360.157 300.831C377.926 336.269 439.216 339.751 446.815 378.664C453.937 415.13 428.019 459.317 394.023 474.237C358.101 490.004 320.228 451.104 281.005 451.438C256.971 451.643 238.454 479.255 214.674 475.766C190.318 472.193 176.804 446.594 156.19 433.127C125.572 413.126 79.9362 410.526 64.2237 377.481C48.6521 344.733 52.1709 295.724 79.5715 271.993C109.509 246.065 162.518 285.386 195.632 263.671C229.282 241.606 214.785 175.976 251.408 159.314Z" fill="#EDC5A0"/>
</g>
<defs>
<clipPath id="clip0">
<rect width="335" height="308" fill="white"/>
</clipPath>
</defs>
</svg>
