<svg width="1440" height="418" viewBox="0 0 1440 418" fill="none" xmlns="http://www.w3.org/2000/svg">
<g clip-path="url(#clip0)">
<rect width="1440" height="418" fill="#6F0079"/>
<path fill-rule="evenodd" clip-rule="evenodd" d="M1304.86 133.902C1333.65 139.504 1353.35 164.857 1381.28 173.804C1423.57 187.348 1478.77 167.101 1509.26 199.371C1538.59 230.412 1539.92 284.761 1523.3 324.1C1507.14 362.355 1459.99 373.996 1425.64 397.333C1400.56 414.366 1377.93 433.911 1348.88 442.58C1319.73 451.279 1287.62 458.677 1259.58 446.889C1232.33 435.432 1226.14 399.252 1202.76 381.153C1170.61 356.258 1110.67 361.194 1098.72 322.333C1087.41 285.586 1134.86 257.108 1154.42 224.009C1171.57 194.998 1177.68 157.129 1206.59 139.812C1235.32 122.602 1271.98 127.504 1304.86 133.902Z" fill="#BF7CF4"/>
<path fill-rule="evenodd" clip-rule="evenodd" d="M135.408 31.3142C168.521 16.2494 215.037 35.1209 237.214 63.9788C259.817 93.3932 227.528 139.664 244.158 172.831C261.926 208.269 323.216 211.751 330.815 250.664C337.937 287.13 312.019 331.317 278.023 346.237C242.1 362.004 204.228 323.104 165.005 323.438C140.971 323.643 122.454 351.255 98.6738 347.766C74.3178 344.193 60.8043 318.594 40.1901 305.127C9.57227 285.126 -36.0638 282.526 -51.7763 249.481C-67.3479 216.733 -63.8291 167.724 -36.4285 143.993C-6.49147 118.065 46.5175 157.386 79.6321 135.671C113.282 113.606 98.7852 47.9758 135.408 31.3142Z" fill="#F278CF"/>
<rect x="910" y="-94.6191" width="205" height="203" rx="35" transform="rotate(-24 910 -94.6191)" fill="#E99980"/>
<path d="M505.811 310.785C521.778 301.991 541.486 312.691 542.806 330.872L549.575 424.061C551.006 443.773 530.08 457.273 512.711 447.843L424.102 399.732C406.733 390.301 406.658 365.398 423.969 355.863L505.811 310.785Z" fill="#E85E5E"/>
<circle cx="381" cy="89" r="31" fill="#EDC5A0"/>
</g>
<defs>
<clipPath id="clip0">
<rect width="1440" height="418" fill="white"/>
</clipPath>
</defs>
</svg>
