<svg width="1056" height="418" viewBox="0 0 1056 418" fill="none" xmlns="http://www.w3.org/2000/svg">
<g clip-path="url(#clip0)">
<rect width="1056" height="418" fill="#6F0079"/>
<path fill-rule="evenodd" clip-rule="evenodd" d="M894.862 153.902C923.654 159.504 943.35 184.857 971.285 193.804C1013.57 207.348 1068.77 187.101 1099.26 219.371C1128.59 250.412 1129.92 304.761 1113.3 344.1C1097.14 382.355 1049.99 393.996 1015.64 417.333C990.561 434.366 967.928 453.911 938.879 462.58C909.732 471.279 877.618 478.677 849.579 466.889C822.326 455.432 816.136 419.252 792.762 401.153C760.611 376.258 700.672 381.194 688.718 342.333C677.414 305.586 724.86 277.108 744.422 244.009C761.567 214.998 767.677 177.129 796.589 159.812C825.322 142.602 861.983 147.504 894.862 153.902Z" fill="#BF7CF4"/>
<path fill-rule="evenodd" clip-rule="evenodd" d="M115.044 -144.684C128.416 -178.516 174.996 -197.23 210.992 -191.858C247.682 -186.382 256.568 -130.663 291.564 -118.338C328.956 -105.17 375.484 -145.217 407.97 -122.487C438.413 -101.188 450.438 -51.3916 436.331 -17.0507C421.424 19.2373 367.16 17.5354 339.163 45.0081C322.008 61.842 327.852 94.5699 308.315 108.57C288.305 122.908 260.807 113.867 236.621 118.487C200.698 125.35 166.049 155.163 131.798 142.29C97.8547 129.532 66.3609 91.8175 69.605 55.7144C73.1493 16.2694 138.6 7.76485 147.356 -30.8539C156.254 -70.0973 100.255 -107.266 115.044 -144.684Z" fill="#F278CF"/>
<rect x="640" y="-94.6191" width="205" height="203" rx="35" transform="rotate(-24 640 -94.6191)" fill="#E99980"/>
<path d="M345.811 320.785C361.778 311.991 381.486 322.691 382.806 340.872L389.575 434.061C391.006 453.773 370.08 467.273 352.711 457.843L264.102 409.732C246.733 400.301 246.658 375.398 263.969 365.863L345.811 320.785Z" fill="#E85E5E"/>
</g>
<defs>
<clipPath id="clip0">
<rect width="1056" height="418" fill="white"/>
</clipPath>
</defs>
</svg>
