<svg width="1440" height="65" viewBox="0 0 1440 65" fill="none" xmlns="http://www.w3.org/2000/svg">
<g clip-path="url(#clip0)">
<g clip-path="url(#clip1)">
<rect width="1440" height="102" fill="#6F0079"/>
<path fill-rule="evenodd" clip-rule="evenodd" d="M1322.86 -9.09812C1351.65 -3.49567 1371.35 21.8567 1399.28 30.8041C1441.57 44.3477 1496.77 24.1011 1527.26 56.3706C1556.59 87.4125 1557.92 141.761 1541.3 181.1C1525.14 219.355 1477.99 230.996 1443.64 254.333C1418.56 271.366 1395.93 290.911 1366.88 299.58C1337.73 308.279 1305.62 315.677 1277.58 303.889C1250.33 292.432 1244.14 256.252 1220.76 238.153C1188.61 213.258 1128.67 218.194 1116.72 179.333C1105.41 142.586 1152.86 114.108 1172.42 81.0086C1189.57 51.9981 1195.68 14.129 1224.59 -3.188C1253.32 -20.3983 1289.98 -15.4955 1322.86 -9.09812Z" fill="#E86161"/>
<path fill-rule="evenodd" clip-rule="evenodd" d="M127.408 -52.6858C160.521 -67.7506 207.037 -48.8791 229.214 -20.0212C251.817 9.39322 219.528 55.6638 236.157 88.8308C253.926 124.269 315.216 127.751 322.815 166.664C329.937 203.13 304.019 247.317 270.023 262.237C234.101 278.004 196.228 239.104 157.005 239.438C132.971 239.643 114.454 267.255 90.6738 263.766C66.3178 260.193 52.8043 234.594 32.1901 221.127C1.57226 201.126 -44.0638 198.526 -59.7763 165.481C-75.3479 132.733 -71.8291 83.7238 -44.4285 59.9928C-14.4915 34.0651 38.5175 73.3856 71.6321 51.6713C105.282 29.6058 90.7852 -36.0242 127.408 -52.6858Z" fill="#F278CF"/>
<rect x="910" y="-94.6191" width="205" height="203" rx="35" transform="rotate(-24 910 -94.6191)" fill="#DFBFF9"/>
<path d="M630.811 -21.2147C646.778 -30.0094 666.486 -19.3088 667.806 -1.12771L674.575 92.0613C676.006 111.773 655.08 125.273 637.711 115.843L549.102 67.7316C531.733 58.3014 531.658 33.3981 548.969 23.8632L630.811 -21.2147Z" fill="#F8CFA9"/>
<circle cx="393" cy="18" r="31" fill="#F7A085"/>
</g>
</g>
<defs>
<clipPath id="clip0">
<rect width="1440" height="65" fill="white"/>
</clipPath>
<clipPath id="clip1">
<rect width="1440" height="102" fill="white"/>
</clipPath>
</defs>
</svg>
