<svg width="512" height="512" viewBox="0 0 512 512" fill="none" xmlns="http://www.w3.org/2000/svg">
<circle cx="256" cy="256" r="256" fill="#D49DFF"/>
<path d="M277.332 64C197.332 64 132.266 126.72 128.426 205.653L87.4656 260.267C82.1322 267.307 87.2522 277.333 95.9989 277.333H127.999V341.333C127.999 364.8 147.199 384 170.666 384H191.999V448H341.332V348.16C391.679 324.267 426.666 272.853 426.666 213.333C426.666 130.773 359.892 64 277.332 64Z" fill="black"/>
<path d="M277.332 64C197.332 64 132.266 126.72 128.426 205.653L87.4656 260.267C82.1322 267.307 87.2522 277.333 95.9989 277.333H127.999V341.333C127.999 364.8 147.199 384 170.666 384H191.999V448H341.332V348.16C391.679 324.267 426.666 272.853 426.666 213.333C426.666 130.773 359.892 64 277.332 64Z" fill="black"/>
</svg>
