<svg width="122" height="62" viewBox="0 0 122 62" fill="none" xmlns="http://www.w3.org/2000/svg">
<path d="M108.243 1.92826C97.3159 -3.09921 83.6891 2.44389 74.9474 10.0495C72.2477 12.3699 71.9906 16.495 74.3046 19.2021C76.6186 21.9092 80.7323 22.167 83.432 19.8467C89.8597 14.1746 98.2158 11.5965 102.972 13.659C108.5 16.1083 109.271 25.5187 109.271 30.8039C109.271 36.0892 108.5 45.4996 102.972 47.9489C98.2158 50.2693 89.8597 47.6911 83.432 42.0191L47.1796 10.1785C38.4378 2.57281 24.8111 -2.9703 13.8839 2.05717C7.58473 4.89317 0 12.241 0 30.9329C0 49.6247 7.58473 56.9725 13.8839 59.9375C24.8111 64.9649 38.4378 59.4218 47.1796 51.8162C49.8792 49.4958 50.1363 45.3707 47.8223 42.6636C45.5084 39.9565 41.3946 39.6987 38.695 42.0191C32.2672 47.6911 23.9112 50.2693 19.1546 48.2067C13.6268 45.7574 12.8555 36.347 12.8555 31.0618C12.8555 25.7765 13.6268 16.3661 19.1546 13.9168C23.7826 11.7254 32.2672 14.4325 38.5664 20.1045L74.8188 51.9451C81.2466 57.6171 90.2454 62 98.9871 62C102.072 62 105.158 61.4844 108.114 60.0664C114.414 57.2304 121.998 49.7536 121.998 31.0618C122.127 12.241 114.542 4.89317 108.243 1.92826Z" fill="#FFEEE5"/>
</svg>
