<svg width="926" height="84" viewBox="0 0 926 84" fill="none" xmlns="http://www.w3.org/2000/svg">
<path d="M108.243 11.2683C97.3159 6.24079 83.6891 11.7839 74.9474 19.3895C72.2477 21.7099 71.9906 25.835 74.3046 28.5421C76.6186 31.2492 80.7323 31.507 83.432 29.1867C89.8597 23.5146 98.2158 20.9365 102.972 22.999C108.5 25.4483 109.271 34.8587 109.271 40.144C109.271 45.4292 108.5 54.8396 102.972 57.2889C98.2158 59.6093 89.8597 57.0311 83.432 51.3591L47.1796 19.5185C38.4379 11.9128 24.8111 6.3697 13.8839 11.3972C7.58473 14.2332 0 21.581 0 40.2729C0 58.9647 7.58473 66.3125 13.8839 69.2775C24.8111 74.3049 38.4379 68.7618 47.1796 61.1562C49.8792 58.8358 50.1363 54.7107 47.8223 52.0036C45.5084 49.2965 41.3946 49.0387 38.695 51.3591C32.2672 57.0311 23.9112 59.6093 19.1546 57.5467C13.6268 55.0974 12.8555 45.687 12.8555 40.4018C12.8555 35.1165 13.6268 25.7061 19.1546 23.2568C23.7826 21.0654 32.2672 23.7725 38.5664 29.4445L74.8188 61.2851C81.2466 66.9571 90.2454 71.34 98.9871 71.34C102.072 71.34 105.158 70.8244 108.114 69.4064C114.414 66.5704 121.998 59.0936 121.998 40.4018C122.127 21.581 114.542 14.2332 108.243 11.2683Z" fill="#6F0079"/>
<path d="M159.04 20.7V65.34H170.38V42.3C170.38 34.38 174.25 29.88 181.54 29.88C188.02 29.88 191.62 33.57 191.62 39.78V65.34H202.96V38.7C202.96 27.09 195.49 19.98 185.59 19.98C177.4 19.98 173.26 23.76 171.46 27.9H170.2V20.7H159.04Z" fill="#6F0079"/>
<path d="M209.777 42.66C209.777 56.52 219.408 66.6 232.728 66.6C244.698 66.6 249.918 60.3 252.978 55.62L243.708 50.22C242.178 53.37 238.848 56.88 232.548 56.88C226.068 56.88 221.837 52.29 221.387 46.35H253.878V41.94C253.878 28.53 245.148 19.44 232.188 19.44C219.048 19.44 209.777 29.16 209.777 42.66ZM221.477 38.43C222.377 32.94 225.708 29.16 232.098 29.16C237.948 29.16 241.548 32.76 242.357 38.43H221.477Z" fill="#6F0079"/>
<path d="M304.285 65.34V20.7H292.945V43.74C292.945 51.66 289.075 56.16 281.785 56.16C275.305 56.16 271.705 52.47 271.705 46.26V20.7H260.365V47.34C260.365 58.95 267.835 66.06 277.735 66.06C285.925 66.06 290.065 62.28 291.865 58.14H293.125V65.34H304.285Z" fill="#6F0079"/>
<path d="M325.503 20.7H314.343V65.34H325.683V40.14C325.683 33.84 329.823 30.78 335.583 30.78H342.243V20.52H337.923C332.253 20.52 328.473 22.23 326.763 27.18H325.503V20.7Z" fill="#6F0079"/>
<path d="M343.986 43.02C343.986 57.06 354.246 66.6 367.386 66.6C380.526 66.6 390.786 57.06 390.786 43.02C390.786 28.98 380.526 19.44 367.386 19.44C354.246 19.44 343.986 28.98 343.986 43.02ZM355.326 43.02C355.326 34.92 360.186 29.52 367.386 29.52C374.586 29.52 379.446 34.92 379.446 43.02C379.446 51.12 374.586 56.52 367.386 56.52C360.186 56.52 355.326 51.12 355.326 43.02Z" fill="#6F0079"/>
<path d="M442.65 2.34H431.31V27H430.23C427.89 23.22 423.93 19.44 416.01 19.44C404.85 19.44 395.49 29.34 395.49 43.02C395.49 56.7 404.85 66.6 416.01 66.6C423.93 66.6 427.89 62.82 430.23 59.04H431.49V65.34H442.65V2.34ZM419.07 29.52C426.09 29.52 431.31 34.56 431.31 43.02C431.31 51.48 426.09 56.52 419.07 56.52C412.23 56.52 406.83 51.66 406.83 43.02C406.83 34.38 412.23 29.52 419.07 29.52Z" fill="#6F0079"/>
<path d="M450.43 7.74C450.43 12.33 453.94 15.48 458.44 15.48C462.94 15.48 466.45 12.33 466.45 7.74C466.45 3.15 462.94 0 458.44 0C453.94 0 450.43 3.15 450.43 7.74ZM464.11 20.7H452.77V65.34H464.11V20.7Z" fill="#6F0079"/>
<path d="M469.356 20.7L484.746 65.34H501.486L516.876 20.7H504.636L493.656 55.44H492.576L481.596 20.7H469.356Z" fill="#6F0079"/>
<path d="M518.537 42.66C518.537 56.52 528.167 66.6 541.487 66.6C553.457 66.6 558.677 60.3 561.737 55.62L552.467 50.22C550.937 53.37 547.607 56.88 541.307 56.88C534.827 56.88 530.597 52.29 530.147 46.35H562.637V41.94C562.637 28.53 553.907 19.44 540.947 19.44C527.807 19.44 518.537 29.16 518.537 42.66ZM530.237 38.43C531.137 32.94 534.467 29.16 540.857 29.16C546.707 29.16 550.307 32.76 551.117 38.43H530.237Z" fill="#6F0079"/>
<path d="M580.825 20.7H569.665V65.34H581.005V40.14C581.005 33.84 585.145 30.78 590.905 30.78H597.565V20.52H593.245C587.575 20.52 583.795 22.23 582.085 27.18H580.825V20.7Z" fill="#6F0079"/>
<path d="M601.008 33.3C601.008 41.58 606.678 45.63 619.188 47.07L620.718 47.25C625.578 47.79 630.168 48.42 630.168 51.75C630.168 55.26 625.938 57.24 621.348 57.24C615.588 57.24 609.558 54.18 606.768 48.33L597.768 54C601.908 60.3 608.748 66.6 621.078 66.6C632.958 66.6 641.148 60.21 641.148 51.48C641.148 43.29 635.838 39.6 621.528 37.89L619.998 37.71C615.318 37.17 611.988 36.36 611.988 33.12C611.988 30.42 614.328 28.62 618.558 28.62C624.498 28.62 628.998 32.22 632.418 36.27L640.608 29.79C634.578 23.49 628.098 19.44 618.918 19.44C608.568 19.44 601.008 25.02 601.008 33.3Z" fill="#6F0079"/>
<path d="M645.811 7.74C645.811 12.33 649.321 15.48 653.821 15.48C658.321 15.48 661.831 12.33 661.831 7.74C661.831 3.15 658.321 0 653.821 0C649.321 0 645.811 3.15 645.811 7.74ZM659.491 20.7H648.151V65.34H659.491V20.7Z" fill="#6F0079"/>
<path d="M664.917 20.7V30.42H676.257V56.7C676.257 61.74 680.037 65.34 685.077 65.34H697.317V55.62H690.117C688.497 55.62 687.597 54.72 687.597 52.92V30.42H699.837V20.7H687.597V6.84H676.257V20.7H664.917Z" fill="#6F0079"/>
<path d="M739.25 20.7L727.55 52.74H726.47L714.77 20.7H702.53L721.07 68.22L714.77 83.34H727.01L751.49 20.7H739.25Z" fill="#6F0079"/>
<path d="M749.468 58.05C749.468 63.09 753.158 66.6 758.018 66.6C762.878 66.6 766.568 63.09 766.568 58.05C766.568 53.01 762.878 49.5 758.018 49.5C753.158 49.5 749.468 53.01 749.468 58.05Z" fill="#6F0079"/>
<path d="M768.025 20.7L776.845 65.34H793.045L800.065 30.42H801.145L808.165 65.34H824.365L833.185 20.7H821.845L816.535 55.62H815.455L808.435 20.7H792.775L785.755 55.62H784.675L779.365 20.7H768.025Z" fill="#6F0079"/>
<path d="M836.798 7.74C836.798 12.33 840.308 15.48 844.808 15.48C849.308 15.48 852.818 12.33 852.818 7.74C852.818 3.15 849.308 0 844.808 0C840.308 0 836.798 3.15 836.798 7.74ZM850.478 20.7H839.138V65.34H850.478V20.7Z" fill="#6F0079"/>
<path d="M907.023 20.7H891.183L873.003 36H871.923V2.34H860.583V65.34H871.923V49.95L878.763 44.28L893.163 65.34H906.303L886.773 37.53L907.023 20.7Z" fill="#6F0079"/>
<path d="M909.923 7.74C909.923 12.33 913.433 15.48 917.933 15.48C922.433 15.48 925.943 12.33 925.943 7.74C925.943 3.15 922.433 0 917.933 0C913.433 0 909.923 3.15 909.923 7.74ZM923.603 20.7H912.263V65.34H923.603V20.7Z" fill="#6F0079"/>
</svg>
